<svg id="_3" data-name="3" xmlns="http://www.w3.org/2000/svg" viewBox="0 0 34.22 13.96"><defs><style>.cls-1{fill:#fff;fill-rule:evenodd;}</style></defs><title>swim-logo</title><path class="cls-1" d="M166.26,57.56a2.32,2.32,0,0,0,2.32-2.31,2.34,2.34,0,1,0-4.68,0,2.22,2.22,0,0,0,.66,1.65,2.27,2.27,0,0,0,1.7.66Zm8.11,3.33a8,8,0,0,1-2.05.28,8.2,8.2,0,0,1-.83,0,6.85,6.85,0,0,1-2.35-.72,9.42,9.42,0,0,0-1.26-.49,10.31,10.31,0,0,0-2.85-.37h-.33a10.88,10.88,0,0,0-3.63.77,6.12,6.12,0,0,1-2,.33,7.24,7.24,0,0,1-.86-.07,6.47,6.47,0,0,1-1.35-.4c-.22-.08-.42-.16-.62-.22a10.12,10.12,0,0,0-2.93-.41h0a9.42,9.42,0,0,0-3.79.71,9.8,9.8,0,0,1-2.66.87,6.19,6.19,0,0,1-.71,0,10.25,10.25,0,0,1-2.5-.36,7.45,7.45,0,0,0-1.57-.23l.28.1a6.72,6.72,0,0,1,1,.52l.5.28a8.67,8.67,0,0,0,3.61.74,8.76,8.76,0,0,0,2.31-.29c.21,0,.42-.12.64-.19a8.6,8.6,0,0,1,1.17-.32,7.69,7.69,0,0,1,1.35-.07,5.66,5.66,0,0,1,2,.45,10.67,10.67,0,0,0,4.18.88h.07a10.64,10.64,0,0,0,2.7-.32A8.23,8.23,0,0,0,163,62a6.45,6.45,0,0,1,2.37-.6h.17a7.38,7.38,0,0,1,2.06.28,10.9,10.9,0,0,0,3.33.59l.57,0a7.64,7.64,0,0,0,3-.73l.5-.28a6.19,6.19,0,0,1,1.21-.58l.1,0a10.3,10.3,0,0,0-1.91.31Zm-9.6-2.25h-.07a10.88,10.88,0,0,0-3.63.77,6.12,6.12,0,0,1-2,.33,7.24,7.24,0,0,1-.86-.07,6.47,6.47,0,0,1-1.35-.4c-.22-.08-.42-.16-.62-.22a10.12,10.12,0,0,0-2.93-.42h-.23l6.42-3.51-1.84-3.29-.08-.12a1.18,1.18,0,0,1,.06-1.1,1.27,1.27,0,0,1,.74-.61l7-1.25a.28.28,0,0,1,.16,0,1.29,1.29,0,0,1,.92.4,1.31,1.31,0,0,1,.08,1.8,1.33,1.33,0,0,1-.84.44l-4.52.85Z" transform="translate(-142.06 -48.72)"/></svg>